<?xml version="1.0" encoding="utf-8"?>
<!-- Generator: Adobe Illustrator 23.0.1, SVG Export Plug-In . SVG Version: 6.00 Build 0)  -->
<svg version="1.1" xmlns="http://www.w3.org/2000/svg" xmlns:xlink="http://www.w3.org/1999/xlink" x="0px" y="0px"
	 viewBox="0 0 800 800" style="enable-background:new 0 0 800 800;" xml:space="preserve">
<style type="text/css">
	.st0{display:none;fill:url(#SVGID_1_);}
	.st1{display:none;}
	.st2{display:inline;}
	.st3{fill:#780000;}
	.st4{opacity:0.2;fill:url(#SVGID_2_);}
	.st5{fill:#FF586C;}
	.st6{fill:#C83142;}
	.st7{fill:#76696C;}
	.st8{fill:#372D2F;}
	.st9{fill:#0E0406;}
	.st10{fill:#C83242;stroke:#000000;stroke-width:0.75;stroke-miterlimit:10;}
	.st11{font-family:'BerlinSansFBDemi-Bold';}
	.st12{font-size:40.9367px;}
	.st13{letter-spacing:1;}
	.st14{fill:#1D1D1B;}
</style>
<g id="background">
	
		<radialGradient id="SVGID_1_" cx="344.0876" cy="401.4679" r="184.0397" gradientTransform="matrix(3.7037 0 0 2.7895 -874.3971 -719.8936)" gradientUnits="userSpaceOnUse">
		<stop  offset="0.4462" style="stop-color:#FFFFFF"/>
		<stop  offset="0.5479" style="stop-color:#FFFDFA"/>
		<stop  offset="0.6699" style="stop-color:#FFF7EB"/>
		<stop  offset="0.8024" style="stop-color:#FFECD3"/>
		<stop  offset="0.9414" style="stop-color:#FFDEB1"/>
		<stop  offset="1" style="stop-color:#FFD7A1"/>
	</radialGradient>
	<rect x="0" class="st0" width="800" height="800"/>
</g>
<g id="objects">
	<g>
		<g class="st1">
			<g class="st2">
				<path class="st3" d="M288.5,759.67v-0.25c-0.35,0.4-0.69,0.72-1.03,0.97c-0.34,0.25-0.71,0.44-1.1,0.57
					c-0.4,0.13-0.83,0.2-1.29,0.2c-0.62,0-1.2-0.13-1.73-0.39c-0.53-0.27-0.98-0.64-1.37-1.13c-0.39-0.48-0.68-1.06-0.88-1.72
					c-0.2-0.66-0.3-1.37-0.3-2.13c0-1.62,0.39-2.89,1.19-3.79c0.79-0.9,1.83-1.36,3.13-1.36c0.75,0,1.37,0.13,1.89,0.39
					c0.51,0.25,1.01,0.65,1.5,1.18v-3.83c0-0.54,0.1-0.93,0.32-1.21c0.21-0.27,0.51-0.41,0.9-0.41c0.39,0,0.69,0.12,0.91,0.38
					c0.21,0.25,0.32,0.62,0.32,1.11v11.43c0,0.5-0.11,0.87-0.34,1.11c-0.23,0.25-0.52,0.37-0.88,0.37c-0.35,0-0.65-0.12-0.88-0.38
					C288.61,760.51,288.5,760.14,288.5,759.67z M283.39,755.86c0,0.7,0.11,1.3,0.33,1.79c0.22,0.49,0.52,0.87,0.9,1.11
					c0.38,0.25,0.8,0.38,1.24,0.38c0.46,0,0.87-0.12,1.25-0.35c0.38-0.24,0.67-0.6,0.9-1.09c0.23-0.49,0.34-1.11,0.34-1.84
					c0-0.69-0.11-1.29-0.34-1.79c-0.22-0.49-0.53-0.87-0.91-1.14c-0.38-0.26-0.8-0.39-1.26-0.39c-0.47,0-0.9,0.13-1.27,0.4
					c-0.37,0.28-0.66,0.66-0.87,1.16C283.5,754.61,283.39,755.2,283.39,755.86z"/>
				<path class="st3" d="M299.93,756.52h-5.07c0.01,0.59,0.12,1.11,0.36,1.56c0.23,0.45,0.54,0.79,0.92,1.01
					c0.38,0.23,0.8,0.35,1.27,0.35c0.31,0,0.59-0.04,0.85-0.11c0.26-0.08,0.51-0.19,0.75-0.35c0.24-0.15,0.46-0.32,0.66-0.5
					c0.2-0.17,0.47-0.42,0.79-0.72c0.13-0.11,0.32-0.17,0.57-0.17c0.26,0,0.48,0.07,0.64,0.22c0.16,0.14,0.25,0.35,0.25,0.61
					c0,0.24-0.09,0.51-0.27,0.83c-0.19,0.31-0.46,0.62-0.83,0.9c-0.37,0.29-0.84,0.53-1.4,0.72c-0.56,0.19-1.21,0.28-1.93,0.28
					c-1.66,0-2.96-0.47-3.88-1.42c-0.92-0.95-1.39-2.24-1.39-3.86c0-0.77,0.11-1.48,0.34-2.13c0.23-0.66,0.56-1.21,1-1.69
					c0.43-0.47,0.98-0.82,1.61-1.08c0.64-0.25,1.35-0.38,2.13-0.38c1.01,0,1.88,0.22,2.61,0.64c0.73,0.43,1.27,0.98,1.63,1.66
					c0.36,0.67,0.54,1.37,0.54,2.07c0,0.65-0.19,1.08-0.56,1.27C301.13,756.42,300.61,756.52,299.93,756.52z M294.86,755.04h4.7
					c-0.06-0.88-0.3-1.55-0.72-1.99c-0.42-0.44-0.96-0.66-1.64-0.66c-0.65,0-1.18,0.22-1.59,0.66
					C295.19,753.51,294.95,754.17,294.86,755.04z"/>
				<path class="st3" d="M311.74,757.76c0,0.72-0.17,1.33-0.52,1.84c-0.35,0.51-0.86,0.9-1.54,1.17c-0.68,0.26-1.51,0.39-2.48,0.39
					c-0.93,0-1.73-0.14-2.39-0.43c-0.67-0.28-1.16-0.64-1.48-1.06c-0.31-0.43-0.48-0.86-0.48-1.3c0-0.28,0.1-0.53,0.31-0.73
					c0.2-0.2,0.46-0.3,0.77-0.3c0.27,0,0.48,0.07,0.63,0.2c0.15,0.13,0.29,0.32,0.42,0.56c0.27,0.47,0.59,0.81,0.96,1.04
					c0.37,0.22,0.87,0.34,1.52,0.34c0.52,0,0.94-0.12,1.27-0.35c0.33-0.23,0.5-0.5,0.5-0.8c0-0.46-0.17-0.79-0.51-0.99
					c-0.35-0.21-0.92-0.41-1.71-0.6c-0.89-0.22-1.62-0.46-2.18-0.7c-0.56-0.24-1.01-0.56-1.35-0.96c-0.34-0.4-0.51-0.89-0.51-1.48
					c0-0.51,0.16-1.01,0.47-1.47c0.31-0.46,0.77-0.83,1.37-1.11c0.6-0.28,1.33-0.41,2.19-0.41c0.67,0,1.27,0.07,1.81,0.21
					c0.54,0.14,0.98,0.33,1.34,0.56c0.36,0.23,0.63,0.49,0.82,0.78c0.19,0.28,0.28,0.56,0.28,0.83c0,0.3-0.1,0.54-0.3,0.74
					c-0.2,0.19-0.48,0.28-0.85,0.28c-0.27,0-0.49-0.08-0.68-0.23c-0.18-0.15-0.4-0.38-0.64-0.68c-0.2-0.25-0.42-0.46-0.69-0.61
					c-0.27-0.15-0.63-0.23-1.08-0.23c-0.47,0-0.86,0.1-1.17,0.3c-0.31,0.2-0.47,0.45-0.47,0.75c0,0.27,0.12,0.49,0.34,0.67
					c0.23,0.17,0.53,0.32,0.92,0.43c0.38,0.12,0.92,0.25,1.6,0.42c0.8,0.2,1.46,0.43,1.97,0.7c0.51,0.27,0.9,0.59,1.16,0.96
					C311.61,756.86,311.74,757.29,311.74,757.76z"/>
				<path class="st3" d="M314.39,749.4c-0.36,0-0.67-0.11-0.93-0.33c-0.26-0.22-0.39-0.54-0.39-0.94c0-0.37,0.13-0.67,0.39-0.9
					c0.26-0.24,0.57-0.36,0.92-0.36c0.33,0,0.63,0.11,0.89,0.33c0.26,0.22,0.39,0.53,0.39,0.94c0,0.4-0.13,0.71-0.38,0.93
					C315.04,749.29,314.74,749.4,314.39,749.4z M315.67,752.08v7.49c0,0.52-0.12,0.91-0.37,1.18c-0.25,0.27-0.56,0.4-0.94,0.4
					c-0.38,0-0.69-0.13-0.93-0.41c-0.24-0.27-0.36-0.67-0.36-1.17v-7.41c0-0.51,0.12-0.9,0.36-1.16c0.24-0.26,0.54-0.39,0.93-0.39
					c0.38,0,0.69,0.13,0.94,0.39C315.55,751.26,315.67,751.62,315.67,752.08z"/>
				<path class="st3" d="M327.03,752.51v7.54c0,0.86-0.09,1.6-0.28,2.22c-0.18,0.62-0.48,1.14-0.88,1.54c-0.4,0.4-0.93,0.7-1.59,0.9
					c-0.66,0.2-1.47,0.3-2.45,0.3c-0.89,0-1.69-0.12-2.39-0.38c-0.7-0.25-1.24-0.57-1.63-0.97c-0.38-0.4-0.56-0.8-0.56-1.22
					c0-0.32,0.11-0.58,0.32-0.77c0.21-0.2,0.47-0.3,0.78-0.3c0.38,0,0.71,0.17,1,0.51c0.14,0.17,0.28,0.34,0.43,0.51
					c0.15,0.18,0.31,0.33,0.49,0.45c0.18,0.12,0.4,0.22,0.65,0.28c0.25,0.06,0.54,0.09,0.88,0.09c0.67,0,1.19-0.09,1.56-0.28
					c0.37-0.19,0.63-0.45,0.78-0.79c0.15-0.33,0.23-0.69,0.26-1.08c0.03-0.38,0.04-1,0.06-1.84c-0.4,0.56-0.86,0.98-1.39,1.27
					c-0.52,0.29-1.14,0.43-1.87,0.43c-0.86,0-1.62-0.22-2.27-0.67c-0.65-0.44-1.15-1.06-1.5-1.86c-0.35-0.79-0.52-1.72-0.52-2.76
					c0-0.77,0.1-1.48,0.32-2.11c0.21-0.63,0.51-1.16,0.9-1.59c0.39-0.43,0.85-0.75,1.36-0.97c0.51-0.22,1.08-0.33,1.69-0.33
					c0.73,0,1.37,0.14,1.91,0.43c0.54,0.28,1.03,0.72,1.5,1.32v-0.35c0-0.45,0.11-0.8,0.33-1.04s0.51-0.37,0.85-0.37
					c0.5,0,0.83,0.16,1,0.49C326.95,751.43,327.03,751.9,327.03,752.51z M319.52,755.8c0,1.05,0.22,1.84,0.68,2.38
					c0.46,0.54,1.05,0.81,1.78,0.81c0.43,0,0.84-0.12,1.22-0.35s0.69-0.58,0.93-1.05c0.24-0.46,0.36-1.03,0.36-1.69
					c0-1.06-0.23-1.88-0.7-2.47c-0.47-0.59-1.08-0.88-1.84-0.88c-0.74,0-1.33,0.28-1.78,0.85
					C319.74,753.95,319.52,754.76,319.52,755.8z"/>
				<path class="st3" d="M331.15,752.04v0.31c0.46-0.6,0.96-1.04,1.5-1.32c0.54-0.28,1.16-0.42,1.87-0.42
					c0.68,0,1.29,0.15,1.83,0.45c0.54,0.3,0.94,0.72,1.21,1.26c0.17,0.32,0.28,0.66,0.33,1.03c0.05,0.37,0.07,0.84,0.07,1.4v4.83
					c0,0.52-0.12,0.91-0.35,1.18c-0.24,0.27-0.55,0.4-0.93,0.4c-0.38,0-0.7-0.13-0.94-0.41c-0.24-0.27-0.36-0.67-0.36-1.17v-4.32
					c0-0.85-0.12-1.51-0.35-1.96c-0.24-0.46-0.71-0.68-1.42-0.68c-0.46,0-0.88,0.14-1.26,0.41c-0.38,0.27-0.66,0.65-0.84,1.13
					c-0.13,0.38-0.19,1.11-0.19,2.16v3.25c0,0.53-0.12,0.92-0.36,1.19c-0.25,0.26-0.56,0.39-0.95,0.39c-0.38,0-0.68-0.13-0.92-0.41
					c-0.24-0.27-0.36-0.67-0.36-1.17v-7.49c0-0.49,0.1-0.86,0.32-1.11c0.22-0.24,0.51-0.36,0.89-0.36c0.23,0,0.43,0.05,0.62,0.16
					c0.18,0.11,0.33,0.27,0.44,0.49C331.1,751.47,331.15,751.73,331.15,752.04z"/>
				<path class="st3" d="M346.93,756.52h-5.07c0.01,0.59,0.13,1.11,0.36,1.56c0.23,0.45,0.54,0.79,0.92,1.01
					c0.38,0.23,0.81,0.35,1.27,0.35c0.31,0,0.59-0.04,0.85-0.11c0.25-0.08,0.51-0.19,0.75-0.35c0.24-0.15,0.46-0.32,0.67-0.5
					c0.2-0.17,0.46-0.42,0.79-0.72c0.13-0.11,0.32-0.17,0.57-0.17c0.26,0,0.48,0.07,0.64,0.22c0.17,0.14,0.25,0.35,0.25,0.61
					c0,0.24-0.09,0.51-0.27,0.83c-0.18,0.31-0.46,0.62-0.83,0.9c-0.37,0.29-0.84,0.53-1.4,0.72c-0.56,0.19-1.21,0.28-1.93,0.28
					c-1.66,0-2.96-0.47-3.88-1.42c-0.93-0.95-1.39-2.24-1.39-3.86c0-0.77,0.12-1.48,0.34-2.13c0.23-0.66,0.56-1.21,1-1.69
					c0.44-0.47,0.98-0.82,1.62-1.08c0.64-0.25,1.35-0.38,2.13-0.38c1.01,0,1.88,0.22,2.6,0.64c0.72,0.43,1.27,0.98,1.63,1.66
					c0.36,0.67,0.54,1.37,0.54,2.07c0,0.65-0.19,1.08-0.56,1.27C348.13,756.42,347.6,756.52,346.93,756.52z M341.85,755.04h4.71
					c-0.06-0.88-0.3-1.55-0.72-1.99c-0.41-0.44-0.96-0.66-1.63-0.66c-0.65,0-1.18,0.22-1.59,0.66
					C342.19,753.51,341.95,754.17,341.85,755.04z"/>
				<path class="st3" d="M357.5,759.67v-0.25c-0.35,0.4-0.69,0.72-1.03,0.97c-0.34,0.25-0.7,0.44-1.1,0.57
					c-0.39,0.13-0.83,0.2-1.29,0.2c-0.62,0-1.2-0.13-1.73-0.39c-0.53-0.27-0.99-0.64-1.37-1.13c-0.39-0.48-0.68-1.06-0.88-1.72
					c-0.2-0.66-0.3-1.37-0.3-2.13c0-1.62,0.4-2.89,1.19-3.79c0.79-0.9,1.83-1.36,3.13-1.36c0.75,0,1.38,0.13,1.89,0.39
					c0.51,0.25,1.01,0.65,1.5,1.18v-3.83c0-0.54,0.11-0.93,0.32-1.21c0.21-0.27,0.51-0.41,0.9-0.41c0.39,0,0.69,0.12,0.91,0.38
					c0.21,0.25,0.32,0.62,0.32,1.11v11.43c0,0.5-0.11,0.87-0.34,1.11c-0.22,0.25-0.52,0.37-0.88,0.37c-0.35,0-0.64-0.12-0.88-0.38
					C357.62,760.51,357.5,760.14,357.5,759.67z M352.4,755.86c0,0.7,0.11,1.3,0.33,1.79c0.22,0.49,0.52,0.87,0.9,1.11
					c0.38,0.25,0.8,0.38,1.24,0.38c0.46,0,0.88-0.12,1.25-0.35c0.38-0.24,0.68-0.6,0.9-1.09c0.22-0.49,0.34-1.11,0.34-1.84
					c0-0.69-0.11-1.29-0.34-1.79c-0.22-0.49-0.53-0.87-0.91-1.14c-0.38-0.26-0.8-0.39-1.26-0.39c-0.47,0-0.9,0.13-1.27,0.4
					c-0.37,0.28-0.66,0.66-0.87,1.16C352.5,754.61,352.4,755.2,352.4,755.86z"/>
				<path class="st3" d="M368.1,748.24v3.96c0.48-0.51,0.98-0.9,1.49-1.17c0.51-0.27,1.14-0.41,1.88-0.41
					c0.86,0,1.61,0.21,2.26,0.62c0.65,0.41,1.15,1,1.51,1.78c0.35,0.77,0.54,1.69,0.54,2.76c0,0.79-0.1,1.5-0.3,2.16
					c-0.2,0.65-0.49,1.22-0.87,1.7c-0.38,0.48-0.84,0.85-1.39,1.12c-0.54,0.26-1.14,0.39-1.79,0.39c-0.4,0-0.77-0.04-1.13-0.14
					c-0.35-0.09-0.65-0.22-0.9-0.37c-0.25-0.16-0.46-0.32-0.63-0.48c-0.17-0.16-0.4-0.41-0.69-0.74v0.25c0,0.49-0.12,0.86-0.35,1.11
					c-0.23,0.25-0.53,0.37-0.89,0.37c-0.37,0-0.67-0.12-0.88-0.37c-0.22-0.25-0.33-0.62-0.33-1.11v-11.32
					c0-0.52,0.11-0.92,0.32-1.19c0.21-0.27,0.51-0.41,0.89-0.41c0.4,0,0.71,0.13,0.92,0.38C367.99,747.4,368.1,747.76,368.1,748.24z
					 M368.22,755.94c0,1.03,0.23,1.82,0.71,2.37c0.47,0.56,1.08,0.83,1.86,0.83c0.65,0,1.21-0.28,1.68-0.85
					c0.47-0.57,0.71-1.38,0.71-2.44c0-0.69-0.09-1.27-0.29-1.76c-0.2-0.5-0.47-0.88-0.84-1.15c-0.36-0.27-0.78-0.4-1.26-0.4
					c-0.5,0-0.94,0.13-1.32,0.4c-0.39,0.28-0.69,0.66-0.91,1.17C368.33,754.63,368.22,755.23,368.22,755.94z"/>
				<path class="st3" d="M379.14,761.48l0.24-0.58l-3.2-8.04c-0.19-0.46-0.29-0.8-0.29-1c0-0.22,0.06-0.43,0.17-0.62
					c0.12-0.2,0.27-0.35,0.47-0.46c0.2-0.11,0.41-0.17,0.63-0.17c0.37,0,0.65,0.12,0.84,0.35c0.19,0.24,0.36,0.58,0.51,1.02
					l2.19,6.38l2.08-5.93c0.16-0.48,0.31-0.86,0.44-1.13c0.13-0.27,0.27-0.46,0.42-0.55c0.14-0.1,0.36-0.15,0.63-0.15
					c0.2,0,0.38,0.05,0.56,0.16c0.18,0.1,0.32,0.24,0.42,0.42c0.1,0.17,0.15,0.36,0.15,0.56c-0.03,0.12-0.07,0.3-0.13,0.51
					c-0.06,0.22-0.13,0.45-0.21,0.68l-3.38,8.85c-0.29,0.78-0.58,1.39-0.85,1.83c-0.28,0.45-0.65,0.79-1.11,1.03
					c-0.46,0.24-1.08,0.35-1.86,0.35c-0.76,0-1.33-0.08-1.71-0.25c-0.38-0.17-0.57-0.47-0.57-0.9c0-0.3,0.09-0.53,0.27-0.69
					c0.18-0.16,0.45-0.25,0.8-0.25c0.15,0,0.27,0.02,0.41,0.06c0.17,0.04,0.3,0.06,0.43,0.06c0.3,0,0.53-0.04,0.7-0.13
					c0.17-0.09,0.33-0.25,0.46-0.46C378.81,762.22,378.96,761.9,379.14,761.48z"/>
			</g>
			<g class="st2">
				<path class="st3" d="M416.71,750.84h0.62v-0.78c0-0.81,0.1-1.45,0.31-1.94c0.2-0.48,0.55-0.83,1.04-1.04
					c0.49-0.22,1.17-0.33,2.02-0.33c1.52,0,2.27,0.37,2.27,1.11c0,0.24-0.08,0.44-0.24,0.61c-0.16,0.17-0.35,0.25-0.56,0.25
					c-0.1,0-0.28-0.01-0.53-0.06c-0.24-0.03-0.46-0.06-0.63-0.06c-0.47,0-0.76,0.14-0.9,0.42c-0.13,0.27-0.2,0.67-0.2,1.18v0.62
					h0.64c0.99,0,1.48,0.3,1.48,0.9c0,0.41-0.13,0.69-0.39,0.8c-0.26,0.12-0.63,0.17-1.09,0.17h-0.64v6.87
					c0,0.51-0.12,0.9-0.37,1.17c-0.24,0.28-0.55,0.41-0.94,0.41c-0.37,0-0.67-0.13-0.92-0.41c-0.24-0.27-0.36-0.66-0.36-1.17v-6.87
					h-0.72c-0.39,0-0.68-0.08-0.89-0.26c-0.21-0.17-0.32-0.4-0.32-0.67C415.4,751.14,415.84,750.84,416.71,750.84"/>
				<path class="st3" d="M425.19,757.41v2.16c0,0.53-0.13,0.92-0.38,1.18c-0.25,0.27-0.56,0.4-0.93,0.4c-0.38,0-0.69-0.13-0.93-0.4
					c-0.24-0.27-0.36-0.66-0.36-1.18v-7.22c0-1.16,0.42-1.75,1.26-1.75c0.43,0,0.75,0.14,0.93,0.41c0.19,0.27,0.3,0.67,0.32,1.2
					c0.31-0.53,0.62-0.93,0.95-1.2c0.33-0.27,0.76-0.41,1.31-0.41c0.55,0,1.07,0.14,1.58,0.41c0.51,0.27,0.77,0.64,0.77,1.08
					c0,0.32-0.11,0.59-0.33,0.78c-0.22,0.21-0.46,0.32-0.71,0.32c-0.1,0-0.33-0.07-0.69-0.18c-0.36-0.12-0.69-0.17-0.96-0.17
					c-0.38,0-0.69,0.1-0.93,0.3c-0.25,0.2-0.43,0.5-0.57,0.89c-0.13,0.39-0.22,0.86-0.27,1.4
					C425.22,755.97,425.19,756.63,425.19,757.41"/>
				<path class="st3" d="M437.12,756.51h-5.08c0.01,0.59,0.13,1.11,0.35,1.56c0.24,0.44,0.54,0.78,0.93,1.01
					c0.38,0.23,0.8,0.34,1.27,0.34c0.31,0,0.59-0.03,0.85-0.11c0.25-0.07,0.51-0.19,0.74-0.34c0.25-0.15,0.46-0.32,0.67-0.5
					c0.2-0.18,0.47-0.42,0.79-0.72c0.14-0.12,0.33-0.17,0.57-0.17c0.27,0,0.48,0.07,0.65,0.22c0.17,0.14,0.24,0.35,0.24,0.61
					c0,0.24-0.09,0.51-0.27,0.82c-0.19,0.32-0.46,0.62-0.83,0.91c-0.38,0.28-0.84,0.53-1.4,0.71c-0.56,0.2-1.2,0.29-1.93,0.29
					c-1.67,0-2.97-0.47-3.89-1.42c-0.93-0.95-1.39-2.24-1.39-3.86c0-0.77,0.12-1.48,0.35-2.13c0.22-0.66,0.56-1.22,1-1.69
					c0.43-0.47,0.97-0.83,1.61-1.08c0.64-0.25,1.34-0.38,2.13-0.38c1.01,0,1.88,0.22,2.6,0.65c0.72,0.42,1.27,0.98,1.63,1.65
					c0.36,0.68,0.54,1.37,0.54,2.08c0,0.65-0.19,1.07-0.56,1.27C438.32,756.42,437.79,756.51,437.12,756.51 M432.04,755.04h4.71
					c-0.06-0.88-0.3-1.55-0.71-1.98c-0.42-0.44-0.96-0.67-1.64-0.67c-0.64,0-1.18,0.22-1.59,0.67
					C432.38,753.51,432.12,754.17,432.04,755.04"/>
				<path class="st3" d="M447.9,756.51h-5.07c0.01,0.59,0.12,1.11,0.35,1.56c0.23,0.44,0.54,0.78,0.92,1.01
					c0.38,0.23,0.8,0.34,1.27,0.34c0.3,0,0.59-0.03,0.84-0.11c0.26-0.07,0.51-0.19,0.75-0.34c0.25-0.15,0.46-0.32,0.66-0.5
					c0.2-0.18,0.47-0.42,0.79-0.72c0.14-0.12,0.33-0.17,0.57-0.17c0.27,0,0.48,0.07,0.65,0.22c0.16,0.14,0.24,0.35,0.24,0.61
					c0,0.24-0.09,0.51-0.27,0.82c-0.17,0.32-0.46,0.62-0.83,0.91c-0.37,0.28-0.84,0.53-1.39,0.71c-0.56,0.2-1.21,0.29-1.93,0.29
					c-1.67,0-2.96-0.47-3.88-1.42c-0.93-0.95-1.39-2.24-1.39-3.86c0-0.77,0.12-1.48,0.35-2.13c0.22-0.66,0.56-1.22,1-1.69
					c0.44-0.47,0.97-0.83,1.62-1.08c0.64-0.25,1.35-0.38,2.13-0.38c1,0,1.87,0.22,2.61,0.65c0.72,0.42,1.27,0.98,1.62,1.65
					c0.36,0.68,0.54,1.37,0.54,2.08c0,0.65-0.19,1.07-0.56,1.27C449.1,756.42,448.58,756.51,447.9,756.51 M442.83,755.04h4.7
					c-0.07-0.88-0.3-1.55-0.72-1.98c-0.42-0.44-0.96-0.67-1.64-0.67c-0.64,0-1.18,0.22-1.59,0.67
					C443.17,753.51,442.91,754.17,442.83,755.04"/>
				<path class="st3" d="M453.58,752.06v0.31c0.49-0.6,1-1.04,1.52-1.32c0.52-0.29,1.12-0.43,1.78-0.43c0.8,0,1.54,0.2,2.2,0.62
					c0.67,0.41,1.2,1.01,1.59,1.81c0.39,0.79,0.59,1.73,0.59,2.81c0,0.8-0.11,1.53-0.33,2.2c-0.22,0.67-0.54,1.23-0.93,1.68
					c-0.39,0.45-0.85,0.8-1.39,1.05c-0.54,0.24-1.11,0.36-1.73,0.36c-0.74,0-1.36-0.15-1.86-0.45c-0.51-0.29-0.98-0.73-1.44-1.3
					v3.89c0,1.14-0.42,1.71-1.24,1.71c-0.49,0-0.81-0.14-0.97-0.44c-0.15-0.3-0.23-0.72-0.23-1.29v-11.2c0-0.49,0.1-0.85,0.32-1.11
					c0.21-0.24,0.51-0.36,0.89-0.36c0.37,0,0.66,0.12,0.89,0.38C453.47,751.23,453.58,751.59,453.58,752.06 M458.67,755.83
					c0-0.69-0.11-1.27-0.31-1.77c-0.21-0.49-0.5-0.87-0.87-1.13c-0.37-0.26-0.78-0.4-1.23-0.4c-0.72,0-1.32,0.28-1.81,0.85
					c-0.49,0.56-0.74,1.4-0.74,2.49c0,1.03,0.25,1.84,0.74,2.41c0.49,0.57,1.08,0.86,1.82,0.86c0.43,0,0.83-0.13,1.19-0.38
					c0.37-0.25,0.67-0.62,0.88-1.13C458.56,757.14,458.67,756.54,458.67,755.83"/>
				<path class="st3" d="M463.88,749.4c-0.36,0-0.67-0.12-0.92-0.33c-0.26-0.22-0.39-0.54-0.39-0.93c0-0.38,0.13-0.67,0.4-0.91
					c0.26-0.24,0.56-0.35,0.91-0.35c0.34,0,0.64,0.1,0.89,0.32c0.26,0.22,0.39,0.54,0.39,0.95c0,0.4-0.13,0.71-0.38,0.93
					C464.54,749.28,464.24,749.4,463.88,749.4 M465.16,752.07v7.51c0,0.51-0.12,0.9-0.37,1.17c-0.25,0.27-0.56,0.4-0.94,0.4
					c-0.38,0-0.68-0.13-0.93-0.41c-0.23-0.27-0.35-0.67-0.35-1.16v-7.43c0-0.51,0.12-0.9,0.35-1.16c0.25-0.26,0.55-0.39,0.93-0.39
					c0.38,0,0.69,0.13,0.94,0.39C465.04,751.25,465.16,751.62,465.16,752.07"/>
				<path class="st3" d="M473.52,759.96l-2.28-3.76l-1.41,1.32v2.07c0,0.5-0.13,0.88-0.4,1.15c-0.26,0.28-0.56,0.41-0.9,0.41
					c-0.4,0-0.72-0.13-0.94-0.4c-0.22-0.27-0.34-0.66-0.34-1.18v-11.06c0-0.57,0.12-1.01,0.33-1.32c0.22-0.3,0.55-0.45,0.96-0.45
					c0.4,0,0.71,0.14,0.95,0.41c0.24,0.27,0.35,0.67,0.35,1.2v6.29l2.91-3.07c0.36-0.38,0.63-0.64,0.83-0.77
					c0.18-0.14,0.42-0.21,0.69-0.21c0.33,0,0.6,0.1,0.81,0.31c0.21,0.2,0.32,0.46,0.32,0.77c0,0.38-0.35,0.89-1.05,1.52l-1.38,1.26
					l2.66,4.19c0.2,0.31,0.34,0.54,0.43,0.7c0.08,0.16,0.13,0.33,0.13,0.46c0,0.41-0.12,0.74-0.35,0.98
					c-0.22,0.24-0.52,0.35-0.88,0.35c-0.31,0-0.56-0.08-0.73-0.26C474.05,760.72,473.82,760.41,473.52,759.96"/>
				<path class="st3" d="M479.16,761.15c-0.39,0-0.72-0.12-1.01-0.38c-0.28-0.25-0.43-0.6-0.43-1.06c0-0.38,0.14-0.72,0.41-0.99
					c0.28-0.28,0.61-0.42,1.01-0.42c0.4,0,0.74,0.14,1.02,0.41c0.28,0.28,0.42,0.61,0.42,1c0,0.46-0.14,0.81-0.42,1.06
					C479.88,761.03,479.54,761.15,479.16,761.15"/>
				<path class="st3" d="M492.06,757.94c0,0.33-0.1,0.67-0.29,1.03c-0.19,0.37-0.49,0.72-0.88,1.05c-0.4,0.33-0.89,0.61-1.5,0.8
					c-0.6,0.2-1.28,0.31-2.03,0.31c-1.61,0-2.86-0.47-3.76-1.4c-0.9-0.93-1.34-2.19-1.34-3.76c0-1.06,0.2-2,0.62-2.82
					c0.41-0.82,1-1.45,1.78-1.89c0.77-0.45,1.71-0.67,2.79-0.67c0.67,0,1.29,0.1,1.85,0.3c0.56,0.2,1.03,0.46,1.42,0.76
					c0.39,0.32,0.69,0.64,0.89,0.99c0.21,0.35,0.31,0.68,0.31,0.99c0,0.3-0.11,0.57-0.34,0.79c-0.23,0.21-0.51,0.32-0.84,0.32
					c-0.22,0-0.4-0.05-0.54-0.17c-0.14-0.11-0.31-0.29-0.48-0.54c-0.31-0.49-0.64-0.85-0.99-1.08c-0.35-0.24-0.78-0.36-1.32-0.36
					c-0.76,0-1.38,0.3-1.85,0.9c-0.47,0.6-0.7,1.42-0.7,2.46c0,0.49,0.06,0.94,0.18,1.35c0.12,0.41,0.29,0.75,0.52,1.04
					c0.23,0.29,0.5,0.51,0.82,0.66c0.33,0.15,0.68,0.22,1.06,0.22c0.52,0,0.97-0.12,1.34-0.36c0.38-0.24,0.7-0.61,0.98-1.1
					c0.16-0.3,0.33-0.52,0.51-0.69c0.18-0.16,0.41-0.25,0.68-0.25c0.32,0,0.58,0.12,0.79,0.36
					C491.95,757.41,492.06,757.67,492.06,757.94"/>
				<path class="st3" d="M503.25,755.88c0,0.77-0.12,1.49-0.35,2.14c-0.25,0.65-0.59,1.21-1.05,1.68c-0.46,0.47-1,0.83-1.63,1.08
					c-0.64,0.25-1.35,0.38-2.14,0.38c-0.79,0-1.49-0.12-2.12-0.38c-0.62-0.25-1.17-0.61-1.63-1.08c-0.46-0.48-0.81-1.04-1.06-1.68
					c-0.22-0.64-0.35-1.35-0.35-2.13c0-0.78,0.12-1.5,0.36-2.16c0.24-0.65,0.59-1.22,1.03-1.67c0.46-0.46,1-0.82,1.63-1.07
					c0.64-0.25,1.35-0.38,2.12-0.38c0.78,0,1.5,0.12,2.14,0.38c0.64,0.25,1.18,0.61,1.65,1.08c0.46,0.48,0.8,1.03,1.04,1.67
					C503.13,754.39,503.25,755.1,503.25,755.88 M500.65,755.88c0-1.06-0.24-1.88-0.7-2.47c-0.46-0.59-1.09-0.89-1.87-0.89
					c-0.51,0-0.96,0.14-1.35,0.4c-0.38,0.26-0.68,0.64-0.89,1.16c-0.21,0.51-0.32,1.11-0.32,1.79c0,0.68,0.1,1.27,0.3,1.78
					c0.21,0.51,0.51,0.89,0.89,1.16c0.38,0.26,0.83,0.41,1.35,0.41c0.78,0,1.41-0.3,1.87-0.9
					C500.41,757.74,500.65,756.92,500.65,755.88"/>
				<path class="st3" d="M513.14,756.07v3.44c0,0.55-0.12,0.96-0.37,1.23c-0.25,0.28-0.57,0.41-0.98,0.41
					c-0.39,0-0.72-0.13-0.96-0.41c-0.25-0.27-0.37-0.68-0.37-1.23v-4.13c0-0.65-0.02-1.16-0.07-1.53c-0.05-0.35-0.17-0.65-0.36-0.88
					c-0.2-0.23-0.51-0.35-0.93-0.35c-0.85,0-1.4,0.29-1.68,0.88c-0.26,0.58-0.4,1.42-0.4,2.51v3.5c0,0.54-0.13,0.95-0.37,1.22
					c-0.25,0.27-0.56,0.41-0.96,0.41c-0.4,0-0.72-0.14-0.97-0.41c-0.25-0.28-0.38-0.69-0.38-1.22v-7.42c0-0.48,0.12-0.85,0.34-1.11
					c0.23-0.26,0.52-0.38,0.89-0.38c0.35,0,0.65,0.12,0.89,0.35c0.23,0.24,0.35,0.57,0.35,0.98v0.25c0.45-0.54,0.93-0.93,1.44-1.18
					c0.52-0.26,1.08-0.38,1.71-0.38c0.65,0,1.21,0.13,1.68,0.39c0.47,0.25,0.85,0.65,1.16,1.17c0.43-0.53,0.91-0.92,1.41-1.18
					c0.5-0.26,1.05-0.38,1.66-0.38c0.71,0,1.32,0.14,1.84,0.42c0.51,0.27,0.89,0.68,1.14,1.19c0.22,0.47,0.33,1.21,0.33,2.21v5.06
					c0,0.55-0.12,0.96-0.37,1.23c-0.25,0.28-0.58,0.41-0.98,0.41c-0.39,0-0.71-0.14-0.96-0.41c-0.25-0.28-0.38-0.69-0.38-1.22v-4.36
					c0-0.56-0.03-1-0.07-1.34c-0.05-0.33-0.17-0.62-0.38-0.85c-0.21-0.22-0.53-0.34-0.95-0.34c-0.34,0-0.66,0.1-0.97,0.3
					c-0.31,0.2-0.55,0.48-0.72,0.82C513.24,754.18,513.14,754.96,513.14,756.07"/>
			</g>
			<g class="st2">
				<path class="st3" d="M392.44,755.25c-0.01,0-0.01-0.01-0.01-0.01C392.43,755.24,392.43,755.25,392.44,755.25z"/>
				<path class="st3" d="M392.57,756.08L392.57,756.08c-0.05-0.23-0.09-0.47-0.12-0.7C392.48,755.61,392.52,755.85,392.57,756.08z"
					/>
				<path class="st3" d="M393.42,758.49c0-0.01-0.01-0.02-0.01-0.04C393.42,758.47,393.42,758.48,393.42,758.49z"/>
				<path class="st3" d="M393.34,758.33c-0.02-0.04-0.04-0.09-0.07-0.14C393.3,758.24,393.32,758.29,393.34,758.33z"/>
				<path class="st3" d="M392.81,757.01c0.13,0.4,0.28,0.79,0.46,1.16C393.09,757.79,392.94,757.4,392.81,757.01L392.81,757.01z"/>
				<path class="st3" d="M402.47,745.32c0.5,0,0.88,0.04,1.29,0.11l0.12-0.76c0,0-1.17-0.36-2.71-0.24l-0.12-0.41
					c0.48-0.1,0.84-0.53,0.84-1.03c0-0.58-0.47-1.05-1.06-1.05c-0.58,0-1.06,0.47-1.06,1.05c0,0.51,0.36,0.93,0.84,1.03l0.13,0.46
					c-1.63,0.22-2.93,0.86-2.93,0.86l0.23,0.71c0.99-0.33,1.85-0.53,2.63-0.61C401.43,745.35,402.01,745.32,402.47,745.32z"/>
				<path class="st3" d="M393.41,749.17L393.41,749.17c0.04-0.06,0.08-0.1,0.12-0.15l-0.31-0.22l-0.49-0.35
					c-0.03,0.04-0.79,0.75-1.4,2.05c-0.03-0.04-0.06-0.08-0.09-0.12c-0.18-0.2-0.44-0.3-0.76-0.3c0,0-0.01,0-0.01,0
					c-0.2,0-0.33-0.06-0.42-0.14c0.09-0.12,0.14-0.26,0.14-0.42c0-0.36-0.3-0.67-0.67-0.67c-0.37,0-0.67,0.3-0.67,0.67
					c0,0.38,0.3,0.67,0.67,0.67c0.06,0,0.11-0.01,0.17-0.02c0.16,0.18,0.43,0.34,0.81,0.33c0.2,0,0.34,0.05,0.44,0.16
					c0.11,0.12,0.15,0.3,0.16,0.43v0.01c-0.44,1.19-0.31,2.67-0.31,2.67l1.06,0.04c0.02-0.54,0.1-1.48,0.37-2.24
					C392.72,750.12,393.38,749.21,393.41,749.17z"/>
				<path class="st3" d="M411.67,746.2c-0.37,0-0.67,0.3-0.67,0.67c0,0.05,0.01,0.11,0.03,0.16c-0.19,0.17-0.34,0.43-0.34,0.81
					c0,0.2-0.05,0.34-0.15,0.44c-0.09,0.07-0.19,0.12-0.3,0.14c-0.79-1.1-1.76-1.77-1.76-1.77l-0.76,0.81
					c0.57,0.52,1.16,1.18,1.73,1.99c0.4,0.56,0.8,1.29,1.14,2.02l1.03-0.49c0,0-0.47-1.16-1.13-2.19c0.12-0.04,0.23-0.11,0.33-0.2
					c0.2-0.18,0.3-0.43,0.29-0.76c0-0.2,0.07-0.35,0.15-0.44c0.12,0.09,0.25,0.14,0.41,0.14c0.37,0,0.67-0.3,0.67-0.66
					C412.34,746.5,412.04,746.2,411.67,746.2z"/>
				<path class="st3" d="M409.02,755.4c-1.41,0.69-3.73,1.6-6.79,2.02c-1.2,0.17-2.36,0.23-3.43,0.23c-1.39,0-2.62-0.11-3.56-0.22
					c-1.08-0.14-1.92-0.3-2.44-0.42c0.13,0.39,0.28,0.78,0.46,1.16c0.01,0.01,0.01,0.02,0.01,0.03c0.02,0.04,0.04,0.09,0.07,0.14
					c0.02,0.04,0.04,0.09,0.06,0.12c0.01,0.01,0.01,0.03,0.01,0.04c0.3,0.57,0.67,1.09,1.09,1.55c1.44,1.58,2.91,1.82,2.92,1.82
					l0.02,0.01l0.02,0.01c0.01,0.01,1.31,0.43,3.29,0.43c1.95,0,3.86-0.4,5.67-1.17c1.35-0.69,2.62-1.74,3.25-2.67
					c0.49-0.72,0.84-1.49,1.05-2.29c0.11-0.43,0.2-1.11,0.14-1.82C410.5,754.61,409.87,754.99,409.02,755.4z"/>
				<path class="st3" d="M393.86,749.5c-0.04,0.07-0.65,0.93-1.13,2.26c-0.36,0.99-0.35,2.45-0.35,2.46l0,0
					c0,0.34,0.02,0.68,0.06,1.01c0,0.01,0,0.01,0.01,0.01c0,0.04,0.01,0.09,0.01,0.13c0.03,0.23,0.06,0.47,0.12,0.7
					c0.7,0.18,4.88,1.16,9.55,0.51c2.93-0.41,5.15-1.27,6.5-1.93c1.12-0.54,1.84-1.03,2.12-1.24c-0.28-1.03-1.04-2.64-1.74-3.65
					c-2.01-2.86-4.17-3.6-5.28-3.78c-0.42-0.07-0.76-0.11-1.24-0.11c-0.45,0-1,0.04-1.74,0.12c-0.74,0.07-1.57,0.27-2.53,0.59
					c-1.35,0.45-2.56,1.16-3.52,2.05l-0.04,0.03C394.5,748.79,394.2,749.07,393.86,749.5z M406.13,748.84
					c0.96,0,1.75,0.78,1.75,1.74c0,0.96-0.79,1.74-1.75,1.74c-0.96,0-1.74-0.78-1.74-1.74
					C404.39,749.62,405.17,748.84,406.13,748.84z M397.89,748.77c1.56,0,2.82,1.26,2.82,2.81c0,1.56-1.26,2.81-2.82,2.81
					c-1.56,0-2.81-1.26-2.81-2.81C395.07,750.03,396.33,748.77,397.89,748.77z"/>
			</g>
		</g>
		
			<radialGradient id="SVGID_2_" cx="240.8948" cy="1623.844" r="31.997" gradientTransform="matrix(11.2656 0 0 1.0804 -2315.9292 -1120.5548)" gradientUnits="userSpaceOnUse">
			<stop  offset="0" style="stop-color:#000000"/>
			<stop  offset="0.0268" style="stop-color:#151515"/>
			<stop  offset="0.0957" style="stop-color:#464646"/>
			<stop  offset="0.1701" style="stop-color:#727272"/>
			<stop  offset="0.2484" style="stop-color:#989898"/>
			<stop  offset="0.3316" style="stop-color:#B8B8B8"/>
			<stop  offset="0.4212" style="stop-color:#D2D2D2"/>
			<stop  offset="0.5196" style="stop-color:#E6E6E6"/>
			<stop  offset="0.6313" style="stop-color:#F4F4F4"/>
			<stop  offset="0.7678" style="stop-color:#FDFDFD"/>
			<stop  offset="1" style="stop-color:#FFFFFF"/>
		</radialGradient>
		<path class="st4" d="M758.39,633.85c0,19.09-161.39,34.56-360.49,34.56S37.4,652.94,37.4,633.85c0-19.1,161.4-34.57,360.49-34.57
			S758.39,614.75,758.39,633.85z"/>
		<g>
			<polygon class="st5" points="398.32,403.8 320.08,189.34 702.18,403.8 			"/>
			<polygon class="st6" points="398.32,403.8 354.98,231.7 702.18,403.8 			"/>
			<polygon class="st3" points="398.32,403.8 398.33,325.41 702.18,403.8 			"/>
			<polygon class="st7" points="332.77,413.71 254.53,571.4 636.63,413.71 			"/>
			<polygon class="st8" points="332.77,413.71 289.43,540.24 636.63,413.71 			"/>
			<polygon class="st9" points="332.77,413.71 332.78,471.34 636.63,413.71 			"/>
			<text transform="matrix(1 0 0 1 37.4026 385.9434)"><tspan x="0" y="0" class="st10 st11 st12 st13">{ DIOKOU </tspan><tspan x="203.26" y="0" class="st14 st11 st12 st13">TECH }</tspan></text>
		</g>
	</g>
</g>
</svg>
